<svg height="512pt" preserveAspectRatio="xMidYMid meet" viewBox="0 0 512 512" width="512pt" xmlns="http://www.w3.org/2000/svg"><g transform="matrix(.1 0 0 -.1 0 512)"><path d="m2324 5105c-217-39-366-115-496-253-174-185-250-430-252-812l-1-165 30-44c71-106 224-123 306-34 51 54 57 79 68 280 12 203 30 300 76 397 34 72 107 147 175 181 109 55 329 80 476 55 115-20 201-58 265-117 110-102 154-235 169-512 6-96 13-186 17-200 27-112 167-173 278-122 50 23 68 43 96 106 21 47 22 59 16 210-11 260-45 422-123 580-123 248-333 397-637 451-101 17-364 17-463-1z"/><path d="m750 3528c-94-48-65 75-411-1703-248-1277-310-1610-306-1651 7-67 40-130 80-154 32-20 67-20 2447-20s2415 0 2447 20c40 24 73 87 80 154 4 41-58 374-306 1651-346 1778-317 1655-411 1703l-44 22h-1766-1766zm1041-216c62-30 117-86 146-150 21-45 24-65 21-120-15-253-305-366-485-190-144 141-98 375 91 465 65 31 158 29 227-5zm1765 4c66-31 120-86 151-153 107-233-150-482-380-369-99 48-158 137-165 248-4 56 0 75 21 120 29 60 47 82 98 121 80 61 188 74 275 33z"/></g></svg>